<?xml version="1.0" standalone="no"?>
<!DOCTYPE svg PUBLIC "-//W3C//DTD SVG 20010904//EN"
 "http://www.w3.org/TR/2001/REC-SVG-20010904/DTD/svg10.dtd">
<svg version="1.0" xmlns="http://www.w3.org/2000/svg"
 width="3001.000000pt" height="3001.000000pt" viewBox="0 0 3001.000000 3001.000000"
 preserveAspectRatio="xMidYMid meet">
<metadata>
Created by potrace 1.15, written by Peter Selinger 2001-2017
</metadata>
<g transform="translate(0.000000,3001.000000) scale(0.100000,-0.100000)"
fill="#000000" stroke="none">
<path d="M16810 27903 c-174 -34 -372 -176 -464 -333 -61 -103 -71 -155 -71
-350 0 -195 13 -273 68 -390 38 -83 77 -132 141 -178 134 -98 265 -132 500
-132 156 0 163 -1 183 -22 11 -13 73 -74 137 -137 64 -63 113 -118 109 -121
-5 -4 -46 -34 -93 -67 -279 -197 -430 -310 -430 -323 0 -7 210 -145 395 -260
83 -51 157 -99 166 -107 15 -12 -6 -37 -195 -228 -116 -117 -216 -220 -223
-228 -9 -12 -69 -16 -310 -21 -164 -4 -518 -13 -788 -21 -817 -24 -1212 -36
-1605 -45 -206 -5 -521 -14 -700 -20 -179 -6 -496 -15 -705 -21 -209 -5 -464
-13 -567 -16 l-188 -6 0 39 c-1 53 -26 95 -85 141 -42 33 -261 229 -330 295
-14 13 -16 21 -9 26 7 4 56 42 110 84 55 43 171 133 260 201 89 68 187 146
218 174 l57 51 -73 40 c-40 22 -122 63 -183 92 -242 115 -401 193 -412 202 -9
7 0 26 36 71 26 34 68 89 93 123 50 65 137 127 159 114 7 -5 49 -14 94 -21
197 -29 455 67 636 238 150 142 197 297 149 489 -77 308 -220 460 -575 614
-116 50 -277 61 -370 26 -149 -58 -330 -239 -397 -398 -20 -46 -23 -69 -22
-183 1 -71 7 -150 13 -175 7 -25 17 -65 22 -90 18 -76 95 -221 153 -285 l54
-60 -20 -28 c-11 -15 -81 -107 -155 -205 -75 -97 -156 -206 -180 -241 l-45
-65 39 -23 c37 -23 96 -53 398 -198 77 -37 145 -72 152 -77 12 -10 -5 -24
-392 -321 -49 -37 -109 -86 -132 -107 l-41 -39 41 -43 c48 -49 319 -295 460
-417 20 -18 37 -37 37 -41 0 -8 -80 -11 -840 -29 -267 -7 -523 -16 -569 -20
-73 -8 -87 -13 -113 -38 -40 -41 -45 -87 -37 -378 4 -137 12 -446 18 -685 6
-239 13 -493 16 -565 3 -71 12 -382 20 -690 9 -308 19 -702 24 -875 5 -173 8
-315 8 -316 -1 -1 -175 -7 -387 -13 -212 -7 -415 -15 -451 -18 l-67 -5 -5 218
c-2 121 -10 498 -17 839 -6 341 -15 638 -19 660 l-7 40 -224 -3 c-124 -1 -317
-7 -430 -13 -113 -5 -322 -14 -465 -19 -143 -5 -359 -14 -480 -20 -222 -11
-501 -22 -960 -40 -137 -5 -260 -12 -271 -15 -15 -3 -24 -15 -29 -41 -3 -20
-1 -289 5 -598 6 -308 15 -995 21 -1526 6 -531 13 -984 16 -1007 l5 -43 1204
0 c986 0 1206 2 1210 13 11 30 3 421 -26 1207 -6 157 -15 465 -21 685 -13 513
-25 824 -33 832 -11 11 -1652 -41 -1741 -55 -38 -5 -51 -12 -54 -27 -2 -11 2
-177 8 -370 14 -421 29 -918 41 -1343 5 -196 12 -318 19 -325 12 -12 945 4
974 17 21 10 22 54 7 255 -5 75 -14 249 -20 386 -17 426 -31 628 -46 657 -30
59 -112 75 -163 32 -46 -38 -52 -76 -41 -249 5 -82 15 -260 21 -395 6 -135 13
-295 16 -356 l5 -111 -262 -7 c-145 -4 -266 -4 -271 1 -5 5 -13 172 -18 373
-19 681 -31 1055 -37 1147 l-5 92 33 5 c18 3 121 7 228 10 107 3 319 10 470
15 151 5 354 11 450 13 l175 3 7 -290 c3 -159 11 -434 17 -610 7 -176 16 -484
22 -685 5 -201 13 -438 16 -527 l6 -163 -985 0 -985 0 -6 218 c-4 119 -7 372
-7 562 0 190 -5 516 -10 725 -5 209 -10 578 -11 820 l-1 440 98 7 c55 3 236
11 404 17 168 6 409 15 535 21 599 27 709 31 970 40 154 5 308 12 341 14 l62
5 5 -197 c2 -108 10 -483 16 -832 7 -349 15 -655 19 -680 l7 -45 175 2 c261 4
816 22 886 29 l61 7 7 -94 c4 -52 14 -344 21 -649 31 -1193 35 -1335 45 -1630
31 -902 40 -1445 26 -1530 -7 -41 -5 -49 19 -78 14 -17 41 -35 58 -40 18 -5
113 -5 212 -1 99 5 344 15 545 24 201 8 523 22 715 30 421 18 970 41 1305 54
284 12 651 29 794 37 93 5 98 5 91 -13 -18 -44 -45 -192 -45 -247 0 -107 40
-202 106 -253 l34 -26 -44 -47 c-67 -71 -80 -103 -81 -190 0 -89 22 -139 93
-212 25 -26 44 -49 41 -51 -2 -2 -44 -9 -94 -15 -49 -7 -137 -19 -195 -28 -58
-8 -150 -21 -205 -29 -55 -8 -145 -21 -200 -29 -166 -25 -304 -44 -425 -60
-63 -9 -125 -18 -136 -21 -12 -3 -73 -12 -135 -20 -122 -17 -263 -37 -424 -61
-55 -8 -146 -21 -202 -29 -57 -8 -149 -22 -205 -30 -57 -8 -150 -21 -208 -30
-101 -15 -195 -29 -412 -60 -57 -8 -137 -19 -178 -25 -171 -24 -266 -42 -292
-56 -49 -25 -61 -65 -54 -173 4 -53 10 -106 12 -118 5 -18 0 -22 -38 -31 -58
-15 -146 -38 -185 -51 -32 -9 -34 -8 -62 33 -71 102 -165 158 -278 164 -167 9
-294 -81 -349 -250 -11 -32 -22 -58 -26 -58 -4 0 -37 16 -73 36 -74 41 -154
53 -222 35 -61 -17 -142 -95 -181 -175 -28 -57 -37 -84 -59 -173 -6 -27 -11
-28 -40 -8 -64 45 -192 39 -268 -13 -84 -58 -220 -275 -271 -435 -14 -42 -23
-56 -34 -51 -8 3 -53 14 -100 25 -163 39 -261 4 -322 -115 -23 -45 -40 -199
-31 -286 l5 -55 -94 -34 c-197 -70 -264 -111 -321 -190 -44 -60 -66 -122 -74
-205 l-6 -68 -64 7 c-93 10 -156 -2 -210 -38 -98 -67 -147 -183 -161 -379 l-9
-117 -49 -56 c-163 -187 -201 -245 -229 -350 -48 -187 19 -420 199 -687 l65
-98 -9 -52 c-9 -48 -23 -184 -54 -498 l-11 -115 -230 -12 c-126 -6 -246 -14
-265 -17 -314 -46 -474 -111 -611 -246 -111 -110 -161 -215 -184 -384 -12 -91
-12 -140 1 -344 13 -218 31 -376 54 -477 5 -22 14 -62 19 -90 14 -74 36 -159
65 -260 14 -49 33 -117 42 -150 30 -114 71 -168 138 -181 57 -10 96 17 167
117 35 49 80 112 99 138 19 27 89 126 155 220 66 94 170 241 230 326 61 85
137 193 170 240 60 86 72 94 117 76 44 -18 297 -67 382 -74 27 -2 31 -7 42
-57 40 -175 64 -1015 35 -1213 -14 -92 -14 -100 5 -144 23 -55 77 -93 134 -93
71 0 118 34 290 208 416 421 588 649 703 937 40 100 50 160 51 290 0 191 -32
283 -169 473 -191 269 -388 447 -618 559 -61 30 -95 53 -92 60 2 7 7 36 10 65
7 56 23 152 31 179 4 14 28 17 152 22 156 6 221 21 307 72 64 37 132 112 164
179 27 59 71 245 71 304 0 26 5 30 59 46 70 21 123 67 141 122 23 69 8 148
-49 261 -55 111 -59 123 -36 123 54 0 269 96 307 136 35 38 51 99 38 144 -15
54 -13 60 23 60 19 0 62 14 96 31 99 49 142 141 123 261 l-8 53 87 0 c82 0 89
2 126 31 21 17 48 45 60 63 26 38 58 136 69 206 3 28 10 60 15 72 l8 21 58
-24 c32 -13 74 -24 93 -24 85 0 172 75 208 178 32 93 41 125 48 170 4 23 10
42 15 42 5 0 25 -18 45 -40 66 -73 193 -140 265 -140 55 0 141 41 189 90 62
64 94 134 116 257 l18 102 72 6 c40 4 77 5 82 1 5 -3 12 -29 15 -58 5 -49 16
-132 52 -400 34 -247 45 -329 59 -445 8 -67 18 -132 21 -145 3 -13 9 -61 15
-108 5 -47 19 -152 30 -235 34 -249 51 -376 61 -460 5 -44 11 -90 14 -103 3
-13 12 -76 20 -140 8 -64 22 -169 30 -232 17 -120 33 -243 60 -445 9 -66 23
-168 31 -227 8 -60 20 -156 28 -215 8 -60 22 -160 31 -223 8 -63 22 -164 29
-225 8 -60 19 -144 25 -185 11 -74 25 -181 56 -415 64 -479 90 -667 101 -724
l7 -34 91 7 c173 13 159 14 163 -17 2 -15 19 -72 37 -125 18 -53 52 -153 75
-222 23 -69 46 -134 51 -145 5 -11 14 -32 20 -48 5 -15 17 -30 27 -34 17 -7
92 2 278 32 133 21 288 45 298 45 5 0 7 -55 5 -122 l-3 -123 -50 -17 c-28 -9
-115 -40 -195 -69 -80 -28 -154 -53 -165 -56 -29 -8 -52 -30 -66 -66 -7 -18
-41 -91 -75 -164 -34 -73 -65 -141 -69 -152 -3 -11 -21 -28 -39 -39 -49 -29
-60 -72 -54 -206 4 -88 10 -120 27 -155 l23 -43 -20 -47 c-76 -182 -95 -321
-59 -426 17 -49 16 -52 -3 -90 -28 -55 -28 -233 -1 -321 24 -76 73 -185 101
-224 20 -28 20 -34 9 -162 -14 -167 -7 -234 31 -311 l30 -59 -19 -42 c-10 -22
-31 -76 -46 -118 -51 -145 -24 -272 83 -389 29 -31 52 -60 52 -64 0 -4 -8 -19
-18 -33 -10 -15 -35 -70 -57 -122 -34 -83 -39 -105 -39 -175 0 -68 4 -88 27
-132 28 -53 74 -107 139 -159 l37 -29 -33 -50 c-47 -72 -66 -131 -66 -205 0
-211 201 -401 541 -510 l96 -31 7 -91 c3 -50 6 -121 6 -158 l0 -66 -52 -14
c-255 -64 -391 -132 -796 -398 -211 -139 -230 -158 -266 -264 -19 -56 -16 -75
51 -368 50 -222 132 -303 278 -276 65 12 139 100 224 264 78 150 107 196 121
187 12 -8 52 -82 79 -150 48 -118 97 -188 167 -242 32 -24 47 -28 98 -28 52 0
68 5 107 32 52 36 95 98 134 193 53 128 69 160 80 160 6 0 33 -43 61 -95 55
-107 126 -194 178 -219 72 -34 161 -14 220 50 36 39 58 82 101 202 15 39 30
72 35 72 13 0 61 -65 123 -165 64 -103 113 -159 176 -201 60 -39 146 -41 205
-5 59 37 117 140 145 256 5 22 24 95 41 163 27 104 30 128 20 157 -15 45 -292
315 -425 413 -55 40 -155 101 -222 134 l-122 61 -6 76 c-3 42 -10 104 -16 139
-5 34 -7 66 -5 71 3 4 47 11 98 15 274 19 537 183 616 383 29 73 43 224 26
288 -6 25 -8 45 -3 45 19 0 103 96 124 143 31 66 32 135 4 243 -41 158 -77
243 -140 326 -21 29 -39 57 -39 62 0 5 16 26 35 47 62 69 79 114 80 209 0 65
-5 94 -20 125 -33 69 -123 208 -167 259 l-42 49 13 56 c35 160 37 267 5 364
l-16 47 65 63 c74 71 113 141 133 238 12 59 12 77 -1 141 -15 71 -65 222 -88
263 -6 11 -11 72 -12 135 -1 86 -6 125 -19 155 -38 88 -60 131 -78 157 -18 26
-18 29 -1 80 25 74 20 224 -8 269 -8 13 -21 36 -28 51 -8 15 -21 36 -30 45
-18 20 -175 229 -261 348 -42 59 -62 77 -90 85 -19 5 -38 10 -42 10 -4 0 -19
5 -33 10 -20 8 -24 14 -17 23 16 20 40 117 47 192 7 79 34 246 42 258 2 4 20
7 38 7 19 0 70 6 112 14 75 14 121 22 323 52 52 8 122 20 155 27 l60 12 -1 70
c0 39 -8 147 -18 240 -29 270 -30 304 -15 310 13 4 91 16 299 46 36 5 138 6
228 2 159 -6 163 -7 158 -27 -2 -12 -8 -156 -12 -322 l-7 -300 54 -11 c30 -7
187 -24 349 -38 162 -15 298 -30 302 -33 6 -6 48 -199 67 -307 4 -22 16 -62
26 -89 18 -47 18 -49 0 -62 -10 -8 -32 -16 -49 -20 -45 -8 -55 -18 -125 -129
-36 -55 -101 -154 -145 -220 -44 -66 -94 -147 -110 -180 -28 -55 -31 -68 -30
-155 1 -73 6 -106 22 -142 l21 -48 -34 -75 c-56 -121 -68 -176 -61 -269 3 -44
6 -88 7 -96 0 -8 -18 -76 -41 -150 -39 -126 -41 -141 -37 -230 3 -76 9 -106
30 -151 26 -54 117 -159 166 -192 24 -16 24 -18 13 -67 -20 -87 -14 -194 17
-317 l28 -112 -24 -23 c-27 -25 -82 -119 -140 -234 -35 -71 -38 -85 -38 -158
0 -96 21 -147 90 -222 25 -26 45 -50 45 -52 0 -2 -14 -23 -31 -48 -34 -51 -75
-138 -95 -204 -18 -63 -44 -217 -44 -266 0 -84 46 -169 122 -224 l40 -29 2
-108 c3 -130 23 -202 81 -288 106 -158 376 -285 608 -285 47 0 88 -3 90 -7 2
-5 1 -71 -2 -148 l-6 -139 -30 -16 c-164 -85 -295 -182 -431 -322 -172 -176
-262 -283 -269 -320 -5 -25 7 -73 46 -193 65 -201 97 -272 143 -318 88 -88
191 -89 295 -1 41 34 75 84 146 214 57 104 82 140 95 140 8 0 16 -16 65 -124
45 -100 84 -149 138 -175 79 -38 166 -21 229 46 33 34 84 125 122 216 16 37
34 66 40 64 6 -2 38 -55 72 -119 75 -141 105 -182 159 -213 67 -40 120 -42
185 -8 66 34 112 99 160 223 57 150 68 175 85 185 20 13 32 -2 136 -173 121
-197 206 -264 313 -246 61 10 127 79 154 164 22 67 72 364 72 429 0 100 -69
195 -190 262 -36 20 -144 80 -240 134 -96 54 -224 121 -285 148 -116 51 -309
112 -394 123 -29 4 -54 10 -56 14 -3 4 -6 76 -7 159 l-3 151 109 45 c226 92
389 221 457 360 31 64 34 78 34 160 -1 82 -4 96 -33 150 -18 33 -42 72 -54 87
l-21 27 66 71 c97 102 112 135 112 245 -1 84 -3 95 -40 170 -22 44 -52 101
-68 127 l-28 48 39 47 c121 145 133 278 44 467 -23 49 -42 94 -42 101 0 7 9
33 20 57 32 72 34 138 10 296 l-21 143 25 43 c14 24 40 85 58 137 30 87 32
103 32 221 0 117 -2 130 -27 177 -20 39 -24 57 -17 75 16 44 22 160 10 206
-14 56 -66 193 -92 243 -19 37 -19 40 -1 85 14 36 18 72 17 157 -2 134 -16
173 -73 210 -23 14 -41 30 -41 35 0 5 -24 53 -53 107 -30 54 -69 127 -88 162
-19 35 -43 69 -54 77 -11 7 -81 29 -155 49 -74 20 -146 40 -160 45 -14 5 -51
16 -82 25 l-58 16 0 47 c-1 26 -5 78 -10 117 -5 38 -7 71 -5 73 4 5 174 -9
408 -33 88 -9 165 -14 173 -11 7 3 20 21 28 40 16 38 92 309 133 471 35 141
53 207 63 232 9 23 11 23 158 16 102 -4 151 -3 156 5 10 17 26 109 41 247 8
72 19 166 25 210 5 44 17 139 25 210 9 72 22 182 30 245 8 63 21 171 29 240 9
69 20 163 26 210 11 83 27 217 55 450 29 245 46 380 60 495 14 113 28 225 60
495 8 63 21 171 29 240 9 69 22 181 30 250 8 69 20 163 26 210 6 47 18 141 26
210 8 69 21 177 29 240 8 63 21 176 30 250 9 74 21 169 26 210 11 81 37 302
46 388 l6 52 36 -5 c20 -3 61 -11 92 -17 l57 -10 7 -63 c13 -127 58 -227 132
-296 122 -115 272 -100 424 42 35 32 64 57 65 56 2 -2 15 -50 30 -107 15 -58
37 -125 49 -150 60 -118 175 -160 292 -106 l51 24 17 -76 c38 -172 70 -242
132 -289 34 -26 43 -28 129 -28 l92 0 -9 -23 c-14 -37 -10 -136 7 -178 31 -76
89 -119 184 -139 46 -10 54 -15 52 -31 -18 -95 -5 -151 45 -196 27 -25 135
-72 223 -98 41 -13 79 -26 83 -30 5 -4 -10 -43 -33 -85 -78 -144 -94 -218 -64
-291 28 -67 83 -112 162 -129 24 -5 32 -12 32 -28 0 -52 55 -274 81 -327 44
-88 141 -169 255 -210 47 -18 90 -23 211 -27 l153 -6 5 -36 c3 -20 10 -58 15
-86 5 -27 12 -73 16 -102 l6 -51 -79 -40 c-208 -101 -375 -238 -536 -437 -171
-212 -235 -335 -262 -502 -14 -81 -14 -103 0 -193 8 -56 23 -125 32 -154 48
-153 189 -391 336 -566 197 -234 522 -567 587 -600 71 -36 146 -23 200 35 23
24 25 33 23 103 -2 42 -3 262 -4 487 0 340 3 445 19 617 12 114 25 215 31 226
8 15 25 21 73 25 88 7 187 25 297 53 77 20 97 22 107 12 10 -10 348 -486 428
-603 124 -179 308 -436 337 -469 34 -38 41 -41 87 -41 81 0 126 45 156 155 8
30 32 120 54 200 87 319 113 476 133 795 23 369 -10 532 -141 688 -104 124
-228 194 -455 256 -104 29 -445 60 -652 61 -41 0 -43 2 -43 29 0 16 -6 82 -14
148 -8 65 -20 165 -26 223 -6 58 -15 143 -20 189 l-9 84 65 98 c111 167 172
304 199 444 19 101 19 137 -1 221 -28 123 -49 157 -220 351 l-61 70 -6 104
c-10 169 -43 271 -114 350 -62 69 -102 84 -219 82 l-101 -1 -13 79 c-7 43 -25
105 -40 136 -51 107 -118 153 -352 243 l-88 33 0 127 c0 180 -33 261 -127 317
-40 23 -58 27 -118 26 -38 0 -104 -10 -145 -21 -41 -12 -78 -18 -81 -14 -3 4
-11 27 -18 52 -7 25 -34 88 -60 141 -82 165 -160 263 -246 308 -55 29 -165 29
-218 1 -39 -21 -57 -19 -57 4 0 24 -38 132 -64 183 -34 69 -70 108 -125 141
-38 22 -58 27 -116 27 -62 0 -81 -5 -148 -38 -42 -21 -81 -36 -86 -33 -5 3
-11 20 -15 38 -28 141 -156 250 -309 265 -138 12 -241 -45 -340 -190 -10 -14
-17 -16 -47 -7 -19 6 -84 24 -143 40 -60 15 -111 31 -114 34 -3 3 -1 33 5 68
6 35 14 104 17 155 6 90 6 92 -22 123 -35 39 -70 47 -287 65 -94 8 -220 19
-281 25 -60 5 -186 17 -280 25 -93 9 -219 20 -280 26 -60 6 -186 17 -280 25
-160 14 -254 22 -662 59 -262 24 -473 43 -658 59 -183 16 -265 26 -265 33 0 2
13 23 28 46 52 78 67 125 67 212 0 69 -4 86 -27 127 -15 25 -49 64 -74 87
l-46 40 25 30 c84 100 74 209 -37 434 l-53 107 31 0 c17 0 168 7 336 15 373
18 737 33 1055 45 132 5 341 14 465 20 266 13 591 26 970 40 151 5 345 14 430
20 85 6 197 10 248 10 108 0 154 16 178 61 12 25 13 52 5 177 -6 81 -15 217
-20 302 -6 85 -15 220 -21 300 -6 80 -15 217 -20 305 -5 88 -13 225 -19 305
-6 80 -17 251 -26 380 -8 129 -20 305 -25 390 -6 85 -15 227 -20 315 -5 88
-14 223 -20 300 -10 138 -21 298 -41 609 -5 87 -7 161 -4 164 3 3 173 0 378
-6 204 -6 384 -8 399 -5 23 4 28 12 37 57 6 28 15 359 21 736 6 377 14 747 17
823 l6 138 71 -6 c39 -3 197 -10 351 -15 154 -5 381 -14 505 -20 376 -17 680
-30 995 -41 165 -6 341 -13 390 -17 l90 -7 0 -410 c0 -407 -10 -1324 -21
-2002 l-6 -353 -984 0 -984 0 0 83 c0 45 7 285 15 532 19 576 35 1126 42 1428
l6 238 156 -6 c160 -6 647 -23 988 -34 107 -3 196 -10 201 -16 5 -6 5 -83 1
-175 -7 -152 -24 -729 -36 -1220 -3 -113 -8 -209 -12 -213 -4 -4 -126 -4 -271
-1 l-263 7 7 191 c4 105 11 247 16 316 6 69 11 225 13 348 l2 223 -33 30 c-47
42 -102 41 -146 -3 -40 -40 -40 -44 -61 -503 -9 -181 -20 -406 -25 -500 -5
-93 -9 -202 -10 -242 l0 -71 48 -11 c26 -5 244 -13 493 -17 l446 -6 6 28 c4
16 11 193 16 394 6 201 15 500 21 665 15 414 26 874 22 933 l-4 50 -61 7
c-109 12 -1713 62 -1722 54 -11 -12 -25 -287 -35 -689 -12 -518 -26 -989 -40
-1420 -16 -469 -17 -607 -4 -620 12 -12 2397 -10 2410 2 10 10 21 591 36 1918
15 1274 15 1270 -2 1280 -7 5 -83 11 -169 14 -86 3 -246 11 -356 16 -110 6
-317 15 -460 20 -469 17 -767 29 -965 40 -332 17 -890 33 -897 26 -4 -4 -10
-152 -14 -329 -4 -177 -10 -405 -13 -507 -3 -102 -9 -351 -12 -554 l-7 -369
-71 7 c-39 3 -176 9 -304 13 -155 4 -235 10 -237 17 -2 6 -9 88 -15 181 -6 94
-17 269 -25 390 -8 121 -21 326 -30 455 -38 587 -44 675 -54 840 -6 96 -15
229 -21 295 -5 66 -12 172 -15 235 -3 63 -10 167 -15 230 -6 63 -15 192 -20
285 -5 94 -14 238 -20 320 -5 83 -15 224 -21 315 -18 272 -11 266 -324 262
-126 -2 -324 -7 -440 -12 -337 -15 -911 -24 -902 -14 5 5 110 111 233 236 123
125 224 232 224 237 0 9 -170 125 -270 185 -65 39 -222 138 -247 156 -21 15
-20 17 45 62 145 101 341 245 376 276 l38 33 -25 33 c-14 18 -102 106 -196
196 -94 90 -171 168 -171 175 0 6 14 24 31 41 142 136 228 476 173 687 -45
176 -154 321 -327 439 -93 63 -166 95 -256 112 -96 18 -84 18 -181 -1z m217
-248 c118 -53 240 -166 293 -271 34 -67 35 -72 35 -189 0 -89 -5 -135 -18
-178 -42 -129 -91 -203 -161 -240 -38 -20 -55 -22 -211 -22 -178 0 -208 5
-304 55 -45 23 -109 93 -118 130 -3 14 -9 30 -14 35 -4 6 -15 48 -25 95 -25
126 -16 275 24 361 39 86 117 159 225 209 120 56 174 59 274 15z m-4806 -15
c170 -65 318 -169 372 -263 82 -141 106 -313 55 -393 -100 -155 -401 -291
-541 -245 -92 31 -239 157 -282 242 -41 81 -77 225 -79 313 -1 94 13 128 93
224 59 70 119 120 169 139 48 18 142 10 213 -17z m6591 -2797 c14 -12 18 -31
18 -77 0 -34 7 -135 14 -226 8 -91 18 -248 21 -350 4 -102 9 -192 13 -200 3
-8 12 -112 19 -230 6 -118 19 -321 28 -450 9 -129 22 -334 30 -455 8 -121 21
-323 30 -450 8 -126 21 -329 28 -450 7 -121 16 -227 19 -235 3 -8 11 -114 17
-235 17 -327 37 -660 41 -660 2 0 9 -99 16 -220 7 -121 20 -335 28 -475 8
-140 17 -274 20 -298 3 -23 8 -93 11 -155 6 -112 25 -393 46 -687 6 -85 18
-265 25 -400 8 -135 21 -346 30 -470 33 -496 32 -494 17 -511 -12 -14 -57 -17
-331 -23 -174 -4 -333 -11 -352 -16 -19 -5 -249 -14 -510 -20 -261 -6 -497
-15 -525 -20 -27 -5 -196 -14 -375 -20 -847 -26 -969 -31 -1030 -40 -61 -9
-191 -14 -1035 -41 -176 -5 -342 -14 -370 -19 -27 -5 -201 -14 -385 -20 -184
-6 -483 -17 -665 -25 -181 -8 -481 -19 -665 -25 -184 -6 -357 -15 -385 -20
-27 -5 -198 -14 -380 -20 -181 -6 -485 -17 -675 -25 -190 -8 -444 -19 -565
-24 l-220 -9 -25 24 -24 24 -8 407 c-4 225 -9 464 -12 533 -14 395 -52 1694
-60 2055 -9 393 -24 897 -35 1210 -13 370 -29 928 -41 1475 -5 228 -14 521
-19 650 -6 129 -13 404 -17 611 -5 343 -5 377 11 392 14 14 41 17 178 18 89 0
218 2 287 5 69 2 211 6 315 9 105 2 456 12 780 20 325 9 806 20 1070 26 264 5
523 14 575 19 89 9 338 16 1535 40 264 6 518 14 565 20 47 5 285 12 530 15
245 3 486 10 535 15 50 6 311 15 580 21 270 6 612 14 760 18 505 13 497 13
517 -6z m-3252 -7635 c0 -12 29 -81 65 -153 35 -71 67 -144 70 -162 6 -28 2
-34 -39 -62 l-45 -31 -514 0 -515 0 -48 33 c-46 30 -49 35 -52 82 -2 29 7 95
23 162 23 97 30 114 48 117 32 7 662 31 875 34 130 2 132 2 132 -20z m123
-689 c75 -61 87 -76 87 -105 0 -12 -30 -68 -67 -124 l-68 -103 -120 7 c-66 4
-151 12 -190 18 -114 18 -415 15 -519 -5 -49 -9 -106 -17 -126 -17 -33 0 -39
4 -45 27 -3 15 -38 60 -76 100 -38 40 -69 79 -69 87 0 8 33 48 73 89 l72 75
493 1 493 1 62 -51z m-473 -529 c58 -5 157 -13 220 -19 150 -14 391 -36 610
-56 96 -8 222 -20 280 -25 58 -6 161 -15 230 -20 69 -5 143 -12 165 -15 22 -4
117 -13 210 -21 94 -8 244 -21 335 -29 91 -8 242 -22 335 -30 94 -9 242 -22
330 -30 88 -8 234 -21 325 -30 91 -8 210 -19 265 -24 55 -6 115 -10 134 -11
l34 0 -7 -47 c-3 -27 -13 -102 -20 -168 -8 -66 -19 -158 -25 -205 -6 -47 -18
-140 -26 -207 -8 -68 -22 -178 -30 -245 -8 -68 -19 -161 -25 -208 -10 -81 -23
-184 -56 -460 -8 -69 -22 -179 -30 -245 -8 -66 -21 -175 -29 -242 -8 -68 -22
-178 -30 -245 -8 -68 -21 -177 -29 -243 -29 -235 -47 -382 -61 -500 -8 -66
-21 -174 -29 -240 -9 -66 -22 -176 -30 -245 -8 -69 -19 -163 -25 -210 -6 -47
-18 -140 -26 -207 -8 -68 -22 -178 -30 -245 -8 -68 -19 -161 -25 -208 -11 -83
-27 -217 -55 -450 -24 -202 -46 -382 -61 -505 -8 -66 -21 -174 -29 -240 -8
-66 -21 -174 -29 -240 -21 -174 -37 -289 -40 -293 -2 -1 -84 2 -182 8 -99 6
-309 15 -469 21 -521 19 -1716 66 -1902 75 l-132 7 52 66 c28 36 60 75 69 86
9 11 65 81 123 155 59 74 120 151 136 170 17 19 62 77 101 128 l70 93 -33 30
c-19 16 -56 43 -84 60 -51 31 -81 50 -347 223 -84 55 -195 126 -246 160 l-94
60 54 51 c30 27 79 72 109 99 119 109 318 295 394 369 l80 78 -65 62 c-36 34
-87 80 -115 102 -27 22 -81 67 -120 101 -38 33 -123 104 -187 158 -65 54 -118
102 -118 106 0 5 39 55 86 112 47 57 100 121 118 143 19 22 98 118 177 213 79
95 153 189 164 208 l20 34 -106 102 c-58 57 -177 171 -264 254 l-159 151 70
90 c109 142 391 501 454 578 80 98 101 134 90 156 -9 15 -101 100 -394 363
-43 39 -86 78 -95 86 -9 9 -57 53 -108 99 l-92 83 67 55 c81 65 147 119 312
253 191 154 220 180 220 196 0 23 -52 89 -315 399 -56 65 -109 128 -165 195
-25 29 -50 58 -55 64 -26 27 -85 104 -85 110 0 8 113 7 240 -4z m-497 -62 c9
-13 27 -36 42 -53 15 -16 45 -52 68 -79 23 -28 59 -70 81 -95 21 -25 45 -55
55 -66 17 -21 111 -132 148 -175 12 -14 47 -56 80 -95 32 -38 64 -76 71 -83
14 -16 16 -42 3 -42 -5 0 -16 -6 -23 -13 -13 -13 -108 -90 -217 -176 -31 -25
-58 -47 -61 -50 -3 -4 -36 -31 -75 -61 -38 -30 -75 -59 -82 -65 -124 -106
-152 -132 -152 -142 -1 -15 76 -94 183 -188 44 -39 87 -77 96 -85 9 -8 34 -31
56 -50 21 -20 66 -60 99 -90 33 -30 98 -89 144 -130 167 -149 156 -136 135
-163 -44 -56 -230 -294 -246 -312 -109 -132 -314 -398 -339 -439 l-21 -36 134
-129 c73 -71 191 -185 263 -254 l129 -124 -29 -35 c-17 -19 -46 -54 -65 -78
-19 -23 -84 -102 -143 -174 -60 -72 -125 -151 -145 -175 -21 -25 -42 -49 -47
-55 -6 -6 -28 -33 -50 -61 -22 -27 -42 -52 -45 -55 -15 -15 -50 -71 -50 -79 0
-16 46 -59 225 -206 27 -22 53 -45 59 -50 6 -6 33 -28 61 -50 27 -22 56 -47
65 -55 9 -8 27 -24 41 -35 13 -11 48 -40 77 -64 l53 -45 -73 -69 c-40 -38 -94
-87 -119 -110 -113 -102 -282 -260 -371 -348 l-98 -96 55 -39 c30 -21 55 -42
55 -46 0 -5 4 -8 9 -8 8 0 142 -84 241 -150 8 -6 51 -33 95 -62 44 -28 118
-77 165 -107 47 -31 92 -60 101 -66 87 -53 109 -68 109 -75 0 -8 -76 -108 -90
-120 -3 -3 -27 -32 -52 -65 -25 -33 -55 -71 -67 -85 -11 -14 -24 -29 -28 -35
-65 -84 -119 -151 -123 -155 -3 -3 -36 -44 -73 -92 l-68 -87 -57 -6 c-31 -3
-75 -10 -97 -15 -22 -5 -67 -11 -100 -15 -33 -3 -82 -10 -110 -16 -27 -5 -99
-16 -160 -24 -60 -8 -155 -22 -210 -30 -55 -9 -136 -20 -180 -25 -44 -6 -89
-12 -100 -15 -11 -4 -67 -13 -125 -20 -100 -14 -160 -23 -405 -60 -60 -9 -154
-23 -207 -31 -54 -8 -142 -21 -195 -29 -54 -8 -143 -21 -198 -29 -55 -8 -149
-22 -210 -31 -140 -21 -273 -40 -402 -58 l-101 -13 -6 30 c-7 34 -27 179 -50
356 -8 63 -19 151 -25 195 -7 44 -18 130 -26 190 -8 61 -19 144 -25 185 -6 41
-15 113 -20 160 -6 47 -12 95 -15 108 -3 13 -13 78 -21 145 -17 130 -36 276
-59 447 -8 58 -22 157 -30 220 -17 129 -36 267 -60 445 -44 325 -68 503 -89
665 -8 63 -20 149 -25 190 -6 41 -18 129 -26 195 -38 284 -46 344 -56 415 -6
41 -17 125 -25 185 -17 134 -40 304 -60 450 -8 61 -21 160 -29 220 -8 61 -21
157 -29 215 -24 172 -46 338 -62 455 -8 61 -21 157 -28 215 -8 58 -21 157 -30
220 -8 63 -20 148 -26 189 -5 41 -8 76 -7 78 2 2 55 10 118 19 139 19 280 39
419 59 58 9 152 23 210 31 58 8 149 22 203 30 162 24 286 42 407 59 63 9 158
23 210 30 52 7 142 20 200 28 58 9 139 20 180 26 41 6 125 18 185 27 61 9 151
22 200 29 50 8 115 17 145 20 30 3 75 10 100 15 25 5 83 14 130 21 109 14 246
34 385 54 128 19 293 42 316 44 9 0 24 -9 32 -21z m4852 -547 c41 -24 64 -78
75 -175 19 -158 8 -455 -21 -581 -19 -82 -50 -188 -65 -222 -8 -17 -14 -34
-14 -37 0 -8 -62 -138 -73 -151 -4 -5 -34 -47 -67 -92 -64 -87 -126 -143 -157
-143 -87 0 -115 242 -63 555 28 170 125 570 151 617 5 10 9 23 9 29 0 19 69
159 87 177 43 43 90 51 138 23z m-592 -136 c51 -15 100 -28 110 -31 14 -4 17
-12 13 -27 -75 -266 -127 -497 -157 -695 l-13 -84 -30 6 c-17 3 -52 8 -79 12
-26 3 -49 9 -51 13 -2 3 0 33 5 66 5 33 16 119 24 190 35 291 45 375 56 473 7
56 16 102 21 102 5 0 50 -11 101 -25z m-8435 -20 c56 -47 113 -189 177 -443
83 -332 109 -491 110 -682 0 -150 -1 -157 -28 -212 -47 -96 -105 -77 -220 75
-117 154 -184 314 -233 562 -27 136 -27 524 0 613 25 80 59 112 121 112 32 0
51 -7 73 -25z m9568 -63 c29 -19 64 -116 90 -247 28 -139 26 -411 -4 -527 -28
-110 -67 -217 -105 -288 -71 -133 -221 -330 -253 -330 -7 0 -16 12 -20 28 -3
15 -9 38 -14 52 -5 14 -12 41 -15 60 -15 81 -47 160 -75 184 l-30 24 44 94
c105 222 158 468 157 729 -1 81 3 120 12 127 16 13 187 102 195 102 4 0 12 -4
18 -8z m-9022 -94 c8 -47 29 -203 51 -373 8 -60 22 -164 31 -230 26 -191 29
-177 -41 -192 -33 -6 -65 -11 -71 -8 -6 2 -14 34 -18 72 -13 130 -72 401 -133
612 -13 46 -22 91 -21 100 2 10 31 23 88 38 47 12 90 22 96 22 6 1 14 -18 18
-41z m-1117 -89 c32 -17 73 -40 91 -51 l32 -20 1 -126 c0 -70 4 -156 9 -192
14 -110 30 -204 40 -235 5 -16 19 -61 30 -100 23 -77 28 -92 81 -203 l35 -76
-32 -33 c-20 -20 -36 -49 -44 -80 -43 -181 -58 -233 -69 -233 -20 0 -117 114
-189 223 -39 59 -118 220 -128 262 -4 17 -10 35 -13 40 -12 20 -33 133 -43
239 -15 151 8 390 48 506 43 123 57 130 151 79z m10635 -176 c35 -38 97 -143
136 -231 111 -250 33 -542 -241 -907 -72 -96 -217 -245 -239 -245 -16 0 -23
24 -53 175 -18 91 -31 146 -39 165 -4 9 15 48 49 100 104 160 178 339 212 515
8 44 17 151 20 238 l5 158 36 23 c70 43 81 44 114 9z m-11129 -144 l57 -31 0
-128 c0 -284 84 -557 245 -800 43 -65 46 -72 36 -103 -6 -17 -24 -96 -41 -175
-16 -79 -32 -147 -35 -152 -23 -38 -216 166 -349 368 -94 144 -138 238 -187
402 -21 67 -18 242 5 310 49 147 166 338 207 340 3 0 31 -14 62 -31z m11765
-444 c3 -133 -6 -248 -32 -415 -58 -369 -176 -597 -350 -679 -72 -34 -204 -64
-261 -59 -51 4 -54 21 -25 136 20 79 22 116 6 167 -5 15 13 44 70 114 217 272
334 514 371 770 l8 55 85 22 c133 34 125 41 128 -111z m-12388 -41 c30 -8 65
-18 76 -21 17 -4 23 -15 28 -58 7 -65 33 -174 46 -197 6 -10 10 -23 10 -29 0
-42 187 -392 229 -429 4 -3 18 -23 33 -45 15 -22 38 -51 51 -65 12 -14 35 -42
51 -62 24 -32 26 -40 15 -59 -12 -24 -6 -127 10 -157 5 -9 12 -44 16 -76 l8
-59 -88 7 c-89 6 -163 25 -224 54 -56 28 -181 159 -181 191 0 5 -3 11 -7 13
-22 9 -92 195 -119 318 -39 169 -63 382 -64 557 0 130 4 147 34 138 11 -3 46
-13 76 -21z m12650 -334 c8 0 27 -6 42 -14 15 -8 41 -17 58 -21 17 -4 48 -23
70 -43 30 -29 40 -47 45 -86 18 -116 -36 -311 -145 -531 -83 -168 -85 -171
-169 -271 -65 -77 -101 -107 -171 -144 -63 -33 -185 -33 -290 -1 -96 30 -94
29 -76 57 9 13 16 39 16 59 0 19 5 35 11 35 21 0 104 43 154 80 96 71 196 197
252 320 35 76 53 120 53 132 0 8 4 18 9 24 5 5 14 32 21 59 6 28 18 79 27 115
8 36 20 101 26 145 13 89 23 113 40 96 6 -6 18 -11 27 -11z m-12966 -146 c3
-9 6 -27 6 -40 0 -29 35 -205 57 -284 61 -224 177 -426 302 -527 31 -25 89
-60 129 -79 63 -30 72 -38 72 -62 0 -15 7 -40 15 -56 9 -16 12 -32 8 -36 -12
-11 -104 -38 -178 -54 -119 -25 -226 13 -330 118 -95 95 -187 246 -278 456
-60 140 -94 300 -83 393 10 80 39 106 191 166 61 24 81 26 89 5z m13598 -340
c28 -47 41 -173 35 -324 -9 -189 -44 -304 -127 -410 -132 -168 -330 -277 -655
-360 -132 -33 -316 -62 -328 -51 -4 4 21 65 55 134 51 102 68 128 88 133 231
57 407 227 574 554 46 90 109 241 130 316 5 17 19 23 69 31 105 18 138 13 159
-23z m-14135 -130 l59 -6 34 -92 c28 -77 134 -304 173 -371 78 -132 197 -270
291 -334 59 -41 168 -91 198 -91 13 0 28 -4 34 -8 11 -7 136 -253 131 -258 -5
-5 -151 15 -222 30 -89 20 -176 41 -195 48 -8 3 -46 16 -85 28 -248 80 -446
226 -527 390 -21 42 -38 82 -38 91 0 8 -5 20 -10 25 -6 6 -15 71 -22 146 -13
155 -1 321 27 376 18 36 33 38 152 26z m14410 -508 c17 -24 39 -71 47 -104 15
-54 15 -67 0 -136 -21 -102 -94 -265 -157 -350 -4 -6 -32 -45 -63 -86 -121
-165 -270 -304 -385 -360 -24 -12 -52 -26 -61 -31 -9 -4 -47 -13 -84 -19 -37
-6 -71 -13 -76 -16 -4 -3 -54 2 -109 11 -161 25 -212 69 -238 205 -6 30 -16
77 -21 104 -7 32 -7 52 0 56 5 3 38 12 72 19 137 28 360 98 455 142 34 16 67
29 73 29 5 0 10 5 10 10 0 6 6 10 13 10 23 0 167 100 234 163 112 105 201 239
234 353 8 24 16 44 19 44 3 -1 19 -20 37 -44z m-14783 -128 c12 -60 86 -196
148 -273 95 -119 180 -185 353 -276 128 -66 394 -153 568 -183 42 -8 44 -14
23 -96 -7 -30 -16 -73 -20 -96 -11 -77 -58 -139 -126 -167 -19 -8 -73 -20
-120 -27 -73 -11 -96 -10 -165 4 -202 41 -388 186 -575 451 -156 221 -224 415
-191 551 12 47 72 144 90 144 5 0 11 -14 15 -32z m14630 -1283 l7 -91 -98 -13
c-54 -7 -114 -15 -134 -18 -22 -3 -40 0 -44 6 -3 7 -13 55 -21 109 -8 53 -17
114 -21 135 -3 22 -2 37 4 37 16 0 153 92 213 144 l55 47 16 -133 c9 -73 19
-174 23 -223z m-14372 102 c42 -31 93 -64 113 -74 36 -17 36 -17 30 -68 -3
-27 -10 -70 -15 -95 -5 -25 -13 -65 -18 -90 -4 -25 -12 -44 -18 -43 -51 9
-169 26 -211 30 -29 3 -50 10 -47 15 5 8 27 210 41 371 l5 58 22 -24 c12 -13
57 -50 98 -80z m14933 -428 c402 -32 606 -117 693 -289 53 -103 62 -212 42
-510 -13 -201 -44 -392 -94 -595 -34 -138 -40 -155 -50 -155 -6 0 -49 55 -96
122 -47 66 -133 189 -192 272 -58 83 -129 183 -156 221 -236 336 -251 353
-315 374 -34 12 -90 3 -292 -47 -44 -11 -125 -25 -180 -31 -197 -24 -236 -45
-274 -150 -41 -115 -68 -450 -80 -970 l-6 -285 -174 190 c-271 296 -363 418
-451 599 -61 126 -84 215 -83 325 1 105 24 170 97 278 89 132 147 204 241 298
197 197 416 306 695 344 47 6 87 14 89 16 9 9 462 4 586 -7z m-14975 -158
c307 -53 504 -153 702 -355 86 -88 224 -269 272 -356 61 -113 70 -267 24 -405
-60 -176 -185 -371 -372 -580 -137 -153 -298 -325 -305 -325 -3 0 -5 51 -2
113 4 114 -12 540 -30 767 -32 430 -67 491 -290 511 -107 9 -215 29 -357 65
-115 30 -117 30 -180 -2 -48 -24 -64 -42 -209 -247 -163 -231 -244 -346 -322
-457 -25 -36 -80 -114 -121 -173 -41 -59 -78 -107 -81 -107 -8 0 -10 7 -53
180 -38 152 -61 274 -76 400 -16 129 -30 447 -24 515 27 280 219 416 654 459
161 16 672 14 770 -3z m8345 -1401 c83 -6 290 -15 460 -21 171 -6 393 -14 495
-19 102 -5 243 -9 314 -9 l128 -1 -6 -37 c-4 -21 -13 -58 -20 -83 -34 -112
-47 -160 -61 -225 -8 -38 -23 -96 -32 -129 l-17 -59 -105 7 c-59 3 -149 11
-201 16 -107 11 -545 52 -1125 105 -214 20 -412 39 -440 43 l-50 7 3 165 c2
91 5 187 9 214 l5 48 247 -6 c135 -3 314 -11 396 -16z m-1801 -87 c3 -21 8
-72 11 -113 3 -41 11 -108 16 -149 7 -47 7 -77 1 -83 -5 -5 -53 -16 -106 -24
-117 -17 -248 -37 -381 -59 -209 -33 -293 -46 -387 -60 -53 -9 -197 -31 -320
-50 -123 -20 -268 -42 -323 -51 -55 -8 -143 -22 -195 -30 -167 -26 -187 -28
-196 -13 -5 8 -37 96 -71 197 -41 122 -57 185 -50 187 7 2 50 8 97 14 47 6
130 18 185 26 55 8 147 22 205 30 58 8 148 22 200 30 52 7 142 20 200 28 58 8
134 20 170 25 36 6 112 18 170 26 58 9 137 21 175 26 39 6 106 15 150 20 44 6
98 14 120 19 22 6 70 13 107 16 37 4 80 10 95 15 15 5 49 9 75 9 46 1 46 1 52
-36z m2001 -632 c357 -32 377 -34 385 -56 13 -32 33 -166 26 -173 -4 -3 -22 0
-41 7 -32 11 -43 9 -118 -18 -83 -30 -295 -101 -303 -101 -8 0 -31 67 -53 155
-12 50 -26 106 -32 126 -15 58 -12 81 9 75 9 -3 67 -10 127 -15z m-2669 -103
c-21 -137 -55 -308 -62 -317 -2 -2 -92 20 -200 49 -175 48 -201 52 -237 43
l-40 -11 5 94 c3 52 8 97 12 101 3 3 47 12 98 20 127 19 284 43 338 53 93 16
94 15 86 -32z m3070 -374 c26 -9 86 -26 133 -39 369 -100 409 -113 428 -142 9
-13 14 -26 11 -28 -3 -3 -70 -9 -149 -15 -133 -8 -458 -33 -589 -44 -30 -3
-152 -11 -270 -20 -118 -8 -235 -18 -259 -22 l-43 -7 43 63 c30 44 53 67 78
77 20 7 45 18 56 23 11 5 65 23 120 41 55 17 114 37 130 44 42 17 237 82 252
84 7 0 33 -6 59 -15z m-3492 -93 c3 -5 27 -12 53 -16 27 -4 53 -10 58 -15 6
-4 28 -11 50 -14 22 -4 60 -14 85 -21 42 -12 94 -27 215 -60 28 -7 62 -16 77
-19 17 -4 43 -27 72 -66 25 -33 46 -63 46 -67 0 -6 -124 -4 -981 13 l-327 7
10 28 c5 15 17 29 26 32 9 3 62 22 117 42 55 20 134 47 175 61 41 13 82 27 90
31 8 3 50 18 92 33 43 15 81 30 85 33 9 10 51 9 57 -2z m4268 -431 c10 -117
-10 -149 -138 -227 -100 -61 -138 -79 -284 -137 -25 -10 -54 -22 -65 -27 -24
-10 -87 -30 -180 -57 -306 -89 -560 -76 -762 38 -131 74 -258 181 -269 227 -8
29 2 123 14 135 12 12 140 26 412 43 135 9 331 23 435 30 691 53 809 62 820
60 6 -1 13 -39 17 -85z m-4108 -78 l689 -7 20 -57 c20 -55 20 -58 2 -97 -33
-74 -201 -215 -333 -281 -114 -56 -201 -73 -372 -73 -121 0 -178 5 -260 22
-150 32 -349 91 -427 126 -17 8 -34 15 -37 15 -4 0 -45 18 -92 41 -98 47 -151
89 -170 136 -14 31 -20 174 -8 185 3 3 71 4 152 1 81 -3 457 -8 836 -11z
m4162 -412 c30 -84 30 -144 1 -191 -56 -92 -156 -178 -265 -230 -100 -46 -100
-46 -207 -70 -87 -20 -127 -22 -305 -22 -113 1 -239 6 -280 12 -41 6 -111 15
-155 21 -44 5 -96 14 -115 20 -19 5 -75 19 -125 31 -184 45 -313 128 -348 225
-16 45 -16 53 -2 109 9 33 19 63 24 68 4 4 39 -13 77 -38 249 -165 515 -222
809 -174 260 43 560 149 795 282 25 14 51 24 59 24 8 -1 25 -31 37 -67z
m-3396 -72 c0 -7 7 -26 16 -43 24 -44 22 -122 -4 -171 -27 -53 -93 -110 -173
-152 -35 -17 -68 -32 -72 -32 -5 0 -23 -6 -40 -14 -94 -43 -381 -105 -627
-136 -92 -11 -296 -11 -370 0 -85 13 -164 31 -175 40 -5 4 -22 10 -37 14 -82
19 -265 163 -302 237 -17 35 -22 144 -7 153 5 4 12 24 16 47 8 48 24 56 62 35
15 -8 44 -22 63 -30 19 -8 56 -24 82 -35 26 -12 54 -21 62 -21 8 0 17 -4 21
-9 3 -5 20 -13 37 -17 18 -3 39 -10 48 -15 23 -12 151 -49 171 -49 10 0 20 -4
23 -9 4 -5 30 -12 59 -16 28 -3 63 -10 77 -15 14 -5 90 -16 169 -24 125 -13
160 -13 273 0 189 21 270 48 433 146 44 26 103 65 130 88 53 42 65 47 65 28z
m3454 -471 c-8 -46 -44 -145 -71 -193 -72 -129 -248 -213 -568 -271 -140 -25
-519 -25 -650 1 -370 72 -631 208 -650 339 -8 52 1 117 19 142 10 15 15 15 27
4 48 -46 245 -123 404 -158 190 -42 464 -73 650 -73 336 -1 559 58 760 200 39
27 73 48 77 45 4 -2 5 -18 2 -36z m-3323 -76 c16 -56 16 -67 3 -110 -38 -130
-320 -283 -674 -366 -197 -46 -582 -46 -800 1 -276 59 -382 142 -454 357 -9
26 -16 57 -16 68 0 18 6 16 58 -19 95 -64 207 -112 352 -148 82 -21 408 -30
535 -15 178 21 346 53 490 91 44 12 91 25 105 28 81 17 336 142 355 173 14 21
29 1 46 -60z m3233 -493 c19 -71 -10 -157 -70 -206 -44 -37 -182 -104 -259
-126 -33 -10 -78 -23 -100 -31 -22 -7 -71 -20 -110 -29 -38 -8 -92 -20 -120
-26 -27 -7 -86 -16 -130 -21 -44 -5 -109 -13 -145 -18 -132 -18 -386 2 -506
41 -72 22 -140 76 -162 127 -20 48 -39 132 -48 209 -8 74 -11 74 109 32 109
-38 217 -65 337 -86 112 -19 515 -23 620 -6 36 6 94 16 130 22 114 19 313 79
380 114 57 31 66 31 74 4z m-3394 -141 c0 -108 -29 -216 -70 -261 -56 -61
-166 -105 -315 -126 -187 -26 -285 -31 -381 -21 -55 6 -139 16 -189 21 -152
17 -338 56 -449 95 -193 67 -266 147 -249 272 l5 41 37 -14 c20 -8 45 -19 56
-24 58 -25 183 -54 305 -71 41 -5 103 -14 136 -19 79 -13 304 -13 391 0 38 5
104 14 148 19 109 14 306 59 321 74 4 4 14 7 23 7 9 1 61 20 116 44 55 24 103
42 108 39 4 -2 7 -37 7 -76z m3435 -349 c42 -91 29 -144 -53 -220 -111 -104
-313 -213 -512 -277 -181 -59 -310 -75 -540 -68 -284 9 -569 87 -695 190 -55
45 -55 72 6 185 69 129 66 126 98 103 55 -38 143 -71 261 -97 100 -21 415 -30
535 -14 50 6 120 15 158 20 37 5 82 13 100 19 17 6 75 20 127 31 52 11 106 25
120 29 14 5 64 21 111 36 48 15 124 47 170 70 46 24 85 44 87 44 2 1 14 -23
27 -51z m-5020 -124 c39 -20 182 -68 265 -88 188 -46 493 -86 655 -86 112 0
330 24 420 46 125 31 205 64 277 115 14 11 30 19 35 19 8 -1 61 -81 109 -166
33 -60 28 -93 -20 -139 -35 -33 -168 -102 -251 -130 -27 -9 -59 -21 -70 -25
-48 -20 -212 -57 -315 -71 -107 -15 -427 -5 -515 16 -109 26 -177 46 -212 61
-17 8 -36 14 -42 14 -6 0 -19 4 -29 9 -9 5 -66 33 -126 62 -191 92 -276 173
-276 263 0 25 4 47 9 51 5 3 12 19 16 35 8 34 25 38 70 14z m4994 -496 c55
-110 54 -134 -6 -195 -27 -27 -57 -53 -68 -60 -27 -16 -245 -125 -270 -135
-297 -117 -504 -158 -937 -187 -233 -15 -481 18 -539 72 -19 18 -21 28 -16 90
8 91 49 211 97 286 22 34 41 61 44 61 2 0 38 -11 80 -25 241 -79 573 -113 805
-84 184 23 366 71 507 135 120 53 150 68 194 96 25 15 50 28 56 28 6 0 30 -37
53 -82z m-4829 -121 c138 -62 311 -112 480 -138 87 -14 417 -14 505 0 198 31
360 75 525 145 22 9 92 -86 134 -184 26 -59 58 -203 50 -223 -3 -8 -24 -25
-47 -38 -102 -58 -244 -80 -562 -86 -154 -3 -275 -1 -315 6 -36 6 -99 15 -140
20 -108 14 -187 29 -250 47 -141 40 -169 48 -225 66 -33 11 -88 33 -122 49
-34 16 -65 29 -68 29 -13 0 -118 73 -146 101 -35 36 -38 80 -10 142 10 23 26
61 36 84 l18 41 51 -22 c28 -13 67 -30 86 -39z m4762 -479 c80 -93 60 -158
-87 -283 -25 -21 -142 -82 -240 -125 -36 -16 -239 -80 -252 -80 -7 0 -21 -4
-31 -9 -16 -8 -101 -28 -272 -63 -39 -8 -130 -13 -225 -13 -176 1 -220 10
-325 67 -130 72 -176 132 -182 238 -3 64 -3 65 22 63 121 -11 407 -13 510 -4
196 17 299 29 333 40 18 5 82 20 142 32 61 12 114 26 120 30 5 5 17 9 27 9 24
0 230 69 243 81 5 5 15 9 23 9 13 0 94 33 122 50 22 13 30 8 72 -42z m-4737
-108 c13 -9 221 -73 305 -93 96 -23 210 -45 340 -63 133 -19 634 -23 710 -6
25 6 75 14 113 17 l67 7 0 -63 c0 -79 -23 -130 -81 -185 -41 -38 -140 -104
-157 -104 -4 0 -19 -6 -34 -14 -80 -42 -330 -52 -538 -23 -225 32 -450 88
-577 143 -17 8 -33 14 -36 14 -13 0 -134 75 -161 99 -85 77 -105 144 -65 211
44 73 74 89 114 60z m4175 -739 l0 -110 -47 -6 c-66 -8 -184 -32 -205 -40 -17
-7 -18 2 -18 103 l0 111 38 6 c20 3 69 14 107 24 39 10 82 19 98 20 l27 1 0
-109z m-3530 -12 c154 -21 136 -10 144 -87 4 -37 9 -87 12 -111 l6 -44 -38 7
c-98 18 -163 26 -206 26 l-48 0 0 116 0 116 28 -6 c15 -4 61 -11 102 -17z
m3822 -359 c99 -20 201 -50 215 -64 3 -3 13 -6 22 -6 17 0 194 -86 296 -143
33 -19 119 -66 190 -106 72 -40 138 -81 147 -90 16 -15 16 -24 3 -121 -17
-125 -31 -199 -38 -207 -6 -5 -56 68 -94 137 -65 119 -140 201 -213 232 -94
41 -209 2 -276 -93 -26 -37 -88 -179 -127 -291 -4 -10 -10 -18 -14 -18 -4 0
-37 57 -72 126 -48 94 -75 135 -110 165 -80 71 -152 87 -227 50 -74 -37 -119
-95 -178 -231 -16 -36 -34 -71 -42 -79 -11 -13 -14 -12 -19 5 -14 42 -86 181
-108 204 -69 78 -167 101 -251 61 -77 -38 -126 -102 -255 -333 -18 -32 -38
-58 -45 -58 -7 0 -23 33 -35 73 -13 39 -27 81 -31 92 -5 11 -14 39 -21 62
l-12 41 69 78 c224 252 338 339 599 455 24 10 220 66 255 72 75 13 275 6 372
-13z m-3742 -106 c204 -41 379 -119 546 -243 34 -25 116 -98 184 -161 l122
-115 -6 -45 c-3 -24 -11 -58 -16 -75 -5 -16 -19 -64 -31 -105 l-22 -74 -29 34
c-16 19 -55 78 -88 130 -74 120 -134 184 -202 215 -61 29 -104 31 -156 9 -72
-30 -121 -94 -171 -226 -16 -40 -32 -73 -37 -75 -6 -2 -22 23 -38 54 -129 264
-277 330 -424 190 -34 -33 -141 -237 -142 -274 0 -4 -7 -17 -15 -27 -14 -18
-17 -14 -50 60 -102 226 -150 289 -248 320 -54 17 -60 17 -110 1 -98 -31 -166
-107 -262 -294 -32 -62 -61 -113 -65 -113 -5 0 -13 21 -18 48 -6 26 -20 88
-31 138 -34 147 -42 131 127 242 81 53 155 101 164 107 10 5 70 42 135 81 137
82 194 109 318 152 203 71 372 85 565 46z"/>
<path d="M16858 24330 c-24 -14 -100 -81 -343 -304 -215 -197 -374 -340 -428
-387 -51 -43 -97 -139 -67 -139 6 0 10 -12 10 -26 0 -19 4 -25 15 -20 8 3 15
1 15 -4 0 -14 84 -12 98 2 7 7 12 9 12 6 0 -3 19 13 43 36 50 48 112 104 182
164 28 24 82 74 121 110 38 37 106 99 149 137 44 39 111 100 150 138 40 37 77
67 83 67 15 0 122 -72 122 -82 0 -4 5 -8 11 -8 5 0 30 -15 54 -32 24 -18 66
-49 94 -68 27 -19 50 -38 51 -42 0 -5 5 -8 10 -8 6 0 30 -14 53 -31 77 -56
255 -183 369 -264 62 -43 114 -82 116 -86 2 -4 12 -5 22 -2 11 3 20 0 20 -6 0
-6 11 -11 25 -11 14 0 25 5 25 11 0 5 4 8 10 4 5 -3 18 2 30 12 36 31 22 102
-32 156 -9 9 -20 17 -23 17 -10 0 -69 44 -78 58 -4 6 -12 12 -17 12 -10 0
-160 105 -192 134 -10 9 -20 16 -23 16 -8 0 -68 43 -76 53 -8 11 -47 34 -71
43 -10 3 -18 9 -18 13 0 4 -32 29 -70 56 -39 28 -137 97 -219 155 -196 139
-199 141 -233 120z"/>
<path d="M12654 24154 c-76 -61 -79 -63 -145 -123 -31 -28 -59 -51 -62 -51 -4
0 -21 -14 -39 -30 -40 -37 -212 -185 -345 -297 -217 -183 -290 -245 -338 -287
l-50 -43 5 -64 5 -64 57 -3 c61 -3 82 6 143 60 29 26 100 88 195 169 25 21 68
57 95 80 28 22 70 58 95 79 83 73 237 205 306 262 38 32 80 68 94 81 50 46 61
48 110 20 25 -15 47 -29 50 -33 3 -3 23 -17 45 -30 22 -13 42 -27 45 -30 3 -3
23 -17 45 -30 22 -13 42 -27 45 -30 3 -3 23 -17 45 -30 22 -13 42 -27 45 -30
3 -3 23 -17 45 -30 22 -13 42 -26 45 -29 3 -4 86 -60 184 -125 171 -114 181
-120 225 -117 62 4 81 22 81 82 0 43 -3 50 -37 76 -48 37 -898 602 -917 609
-7 3 -40 -16 -72 -42z"/>
<path d="M16152 22553 c-383 -384 -734 -737 -778 -784 -119 -128 -120 -164 -4
-290 41 -44 399 -405 795 -801 396 -396 756 -760 800 -809 l80 -88 52 -1 53 0
89 93 c48 50 134 142 190 202 57 61 147 157 200 215 54 58 138 148 186 200 48
52 131 142 185 200 53 58 138 150 189 205 51 55 134 145 186 200 133 142 135
145 135 204 0 48 -2 52 -47 88 -26 21 -60 50 -76 66 -16 15 -32 27 -36 27 -4
0 -18 11 -31 25 -13 14 -29 25 -36 25 -7 0 -14 3 -16 8 -4 9 -125 112 -131
112 -3 0 -18 11 -33 24 -91 77 -146 122 -238 193 -22 18 -54 44 -71 58 -16 13
-50 40 -75 60 -25 20 -58 47 -75 61 -16 14 -79 64 -139 112 -60 48 -141 113
-180 144 -39 31 -105 83 -146 115 -41 31 -101 82 -134 113 -55 52 -61 55 -112
56 l-54 1 -158 -166 c-86 -91 -218 -228 -293 -306 -75 -77 -185 -192 -245
-256 -60 -64 -116 -119 -124 -123 -28 -13 -60 -99 -60 -164 l0 -61 68 -65 c37
-35 105 -99 152 -141 47 -42 114 -102 150 -135 69 -62 181 -163 294 -263 38
-34 103 -95 144 -134 42 -40 79 -73 83 -73 3 0 38 -29 75 -65 113 -106 104
-100 164 -97 l55 2 141 145 c78 80 147 145 153 145 6 0 11 7 11 15 0 9 76 93
169 188 94 94 179 189 190 210 13 24 21 58 21 86 0 54 -9 65 -100 127 -30 20
-81 56 -114 78 -32 23 -67 46 -78 52 -10 6 -29 20 -41 31 -12 10 -40 31 -62
45 -22 15 -71 49 -110 77 -38 28 -80 55 -92 61 -13 5 -23 13 -23 17 0 5 -17
17 -37 28 -20 11 -46 29 -58 41 -11 11 -26 19 -32 17 -6 -2 -14 1 -18 6 -9 16
-57 13 -92 -4 -31 -16 -48 -32 -68 -65 -5 -10 -29 -42 -52 -71 -100 -127 -121
-156 -136 -188 -19 -38 -23 -91 -7 -91 6 0 10 -7 10 -15 0 -8 7 -15 15 -15 8
0 15 -4 15 -10 0 -32 106 8 125 47 12 24 84 117 136 175 l36 41 34 -24 c19
-13 36 -26 39 -29 5 -5 58 -42 116 -80 41 -27 108 -74 192 -135 46 -33 93 -65
105 -72 12 -7 38 -25 57 -41 l35 -30 -112 -112 c-62 -62 -113 -116 -113 -119
-1 -3 -72 -78 -159 -165 l-159 -160 -42 35 c-22 18 -69 62 -104 97 -35 34 -67
62 -72 62 -4 0 -42 32 -83 71 -99 93 -200 187 -296 274 -43 39 -107 98 -143
133 -36 34 -68 62 -72 62 -12 0 -110 100 -110 112 0 10 120 137 367 388 68 68
123 127 123 131 0 4 56 65 124 135 l124 129 36 -34 c20 -19 36 -31 36 -25 0 5
3 5 8 -1 14 -20 131 -115 140 -115 6 0 12 -3 14 -7 6 -14 126 -113 136 -113 6
0 12 -4 14 -9 2 -7 93 -83 153 -128 6 -5 39 -32 75 -61 36 -29 70 -56 75 -60
10 -7 128 -102 154 -123 7 -7 41 -33 75 -60 33 -26 68 -53 76 -61 9 -7 38 -31
65 -53 28 -22 55 -44 61 -50 7 -5 27 -21 44 -35 62 -47 165 -134 172 -144 4
-6 7 -15 5 -19 -3 -10 -80 -96 -217 -242 -58 -61 -143 -153 -190 -204 -47 -51
-123 -132 -170 -179 -46 -48 -91 -97 -100 -109 -9 -12 -54 -63 -100 -113 -128
-137 -259 -277 -332 -354 l-65 -69 -37 35 c-20 19 -36 37 -36 40 0 3 -315 320
-701 704 -385 385 -728 729 -761 766 l-60 68 22 27 c21 28 1088 1100 1239
1246 45 43 81 81 81 86 0 11 44 51 57 51 6 0 40 -26 76 -57 35 -32 88 -78 117
-103 29 -25 76 -66 103 -92 28 -27 53 -48 56 -48 3 0 21 -15 40 -33 19 -17 44
-39 56 -47 13 -8 45 -35 72 -60 100 -91 118 -105 139 -120 12 -8 46 -37 76
-65 30 -27 76 -68 102 -90 26 -22 68 -59 94 -82 26 -23 73 -63 105 -90 33 -26
105 -88 160 -136 56 -48 108 -92 115 -98 7 -5 40 -9 75 -7 l62 3 3 61 3 61
-88 79 c-48 44 -97 87 -108 96 -11 9 -42 37 -70 61 -27 25 -77 68 -110 96 -33
28 -80 69 -105 90 -25 22 -70 60 -100 86 -30 26 -74 64 -98 86 -24 21 -46 39
-49 39 -3 0 -31 23 -62 51 -86 78 -161 144 -221 195 -30 25 -75 63 -100 85
-25 21 -72 62 -105 90 -33 28 -88 77 -122 110 -60 58 -63 59 -118 59 l-56 0
-697 -697z"/>
<path d="M12799 23112 c-47 -48 -177 -164 -252 -224 -48 -39 -145 -122 -197
-168 -74 -67 -165 -146 -224 -195 -72 -60 -244 -207 -302 -259 -28 -25 -53
-46 -56 -46 -3 0 -26 -19 -50 -42 -25 -24 -72 -65 -104 -93 -32 -27 -82 -72
-111 -99 -52 -48 -53 -51 -52 -100 1 -28 6 -57 12 -63 11 -15 112 -18 130 -3
7 5 39 32 72 60 119 102 151 129 205 175 95 81 126 107 319 275 212 184 265
230 318 273 32 26 78 66 103 88 25 22 72 63 105 91 33 27 86 74 118 104 32 30
63 54 69 54 15 0 1398 -1384 1398 -1400 0 -7 -16 -31 -36 -54 -32 -35 -1109
-1118 -1376 -1383 -51 -51 -112 -114 -135 -140 l-42 -48 -58 61 c-106 111
-231 249 -254 278 -13 16 -57 64 -99 107 -102 104 -261 275 -271 291 -4 7 -50
56 -101 109 -51 53 -134 141 -184 195 -50 55 -119 129 -154 167 l-64 67 35 36
c19 20 67 60 107 91 40 30 92 71 116 91 25 20 81 66 126 102 46 36 115 91 154
122 39 32 76 61 81 65 6 5 39 32 75 61 36 29 70 56 75 60 31 23 145 116 173
142 18 17 36 30 40 30 5 0 21 14 37 30 16 17 33 30 37 30 5 0 22 14 38 30 16
17 32 30 36 30 6 0 52 37 117 95 15 14 31 25 34 25 4 0 20 12 35 27 l29 28
107 -111 c59 -60 181 -188 272 -283 91 -95 212 -222 270 -282 l104 -110 -54
-49 c-30 -27 -91 -82 -135 -121 -44 -39 -111 -100 -150 -135 -38 -35 -106 -96
-150 -136 -44 -39 -140 -128 -213 -197 -74 -69 -141 -130 -150 -135 -9 -5 -32
-22 -50 -39 l-32 -31 -133 135 c-72 75 -192 199 -265 277 -122 130 -132 143
-120 161 7 12 16 21 21 21 4 0 13 4 20 10 38 31 79 61 137 101 36 24 67 46 70
49 15 15 71 50 80 50 6 0 13 7 16 15 4 8 10 15 15 15 5 0 29 15 53 33 25 17
66 47 92 66 l48 34 49 -53 c27 -30 60 -70 73 -91 13 -20 41 -56 62 -78 31 -32
46 -41 73 -41 48 0 79 10 79 25 0 7 4 15 10 17 17 6 -9 89 -43 137 -42 60 -42
59 -79 108 -18 22 -44 56 -58 75 -13 18 -42 50 -63 71 -31 30 -45 37 -77 37
-21 0 -42 -5 -45 -10 -4 -6 -11 -7 -17 -4 -6 4 -13 2 -17 -4 -7 -11 -128 -102
-136 -102 -3 0 -26 -16 -52 -35 -27 -19 -52 -39 -58 -43 -5 -4 -37 -25 -70
-47 -33 -22 -68 -47 -78 -57 -11 -9 -52 -38 -93 -64 -41 -26 -74 -51 -74 -56
0 -4 -5 -8 -11 -8 -5 0 -31 -15 -57 -34 -106 -78 -102 -73 -102 -126 0 -69 24
-104 181 -265 76 -77 153 -158 171 -180 19 -22 104 -109 189 -192 l155 -153
48 0 c64 0 63 -1 322 239 40 36 85 77 101 91 50 43 125 110 195 174 36 33 95
86 130 117 69 62 204 184 310 281 l67 61 3 73 c2 41 0 74 -3 74 -4 0 -10 8
-13 18 -12 33 -33 58 -152 178 -65 66 -177 183 -249 259 -71 77 -202 213 -290
303 -88 90 -161 168 -163 173 -2 5 -29 9 -59 9 -51 0 -58 -3 -92 -37 -20 -21
-68 -63 -106 -93 -39 -30 -72 -57 -75 -60 -3 -3 -36 -30 -75 -60 -38 -30 -76
-61 -85 -68 -8 -8 -43 -35 -76 -61 -34 -27 -68 -53 -75 -60 -26 -21 -144 -116
-154 -123 -5 -4 -39 -31 -75 -60 -36 -29 -69 -56 -75 -60 -16 -12 -153 -123
-230 -186 -38 -31 -71 -60 -73 -64 -2 -5 -8 -8 -14 -8 -6 0 -41 -27 -78 -60
-37 -33 -72 -60 -77 -60 -5 0 -20 -11 -33 -25 -13 -14 -27 -25 -31 -25 -4 0
-22 -15 -41 -32 -19 -18 -51 -46 -71 -62 -33 -26 -36 -34 -39 -85 -2 -41 1
-61 14 -76 29 -34 194 -214 298 -325 53 -58 137 -148 185 -200 48 -52 133
-144 189 -204 244 -264 294 -317 390 -420 284 -305 274 -296 329 -296 48 0 50
1 120 77 40 43 405 411 812 818 407 408 769 773 805 813 106 117 104 156 -8
277 -42 44 -390 396 -775 783 l-700 702 -43 0 c-23 0 -48 2 -56 5 -7 2 -38
-21 -69 -53z"/>
<path d="M15555 23080 c-3 -5 -14 -10 -23 -10 -17 0 -137 -110 -144 -131 -3
-9 -107 -119 -424 -448 l-92 -95 -123 115 c-68 63 -205 196 -306 296 -101 101
-195 186 -208 189 -14 3 -25 10 -25 15 0 8 -50 5 -87 -6 -30 -10 -48 -95 -23
-110 6 -4 8 -10 6 -14 -3 -4 69 -80 159 -169 90 -89 167 -167 172 -174 4 -7
24 -25 43 -39 19 -15 82 -73 140 -129 58 -56 135 -131 172 -167 37 -35 74 -63
82 -61 15 3 295 276 329 320 32 42 238 248 248 248 5 0 9 6 9 14 0 8 44 60 97
116 90 95 97 105 104 153 5 40 3 56 -9 69 -8 10 -19 15 -23 12 -5 -3 -9 0 -9
5 0 14 -57 14 -65 1z"/>
<path d="M16668 19386 c-16 -19 -28 -38 -28 -42 0 -3 -13 -23 -30 -44 -16 -21
-30 -40 -30 -43 0 -3 -48 -77 -106 -164 -59 -87 -109 -165 -112 -173 -3 -8 -8
-17 -11 -20 -13 -11 -51 -70 -51 -79 0 -5 -3 -11 -7 -13 -11 -5 -53 -66 -53
-77 0 -5 -3 -11 -7 -13 -12 -5 -53 -66 -53 -78 0 -5 -4 -10 -9 -10 -5 0 -20
-20 -32 -45 -12 -25 -25 -45 -28 -45 -4 0 -17 -20 -31 -45 -33 -60 -47 -63
-87 -20 -18 20 -33 38 -33 40 0 2 -27 31 -59 64 -32 33 -65 69 -73 80 -8 12
-52 59 -96 106 -45 46 -82 86 -82 89 0 3 -26 31 -58 63 -31 32 -68 72 -80 88
-13 17 -57 65 -98 107 -41 43 -74 79 -74 82 0 2 -45 50 -100 106 -118 121
-100 124 -216 -35 -40 -55 -91 -125 -113 -155 -23 -30 -59 -80 -81 -110 -21
-30 -43 -59 -47 -65 -4 -5 -26 -36 -47 -67 -22 -32 -43 -58 -48 -58 -4 0 -8
-6 -8 -13 0 -8 -9 -22 -20 -32 -11 -10 -20 -22 -20 -27 0 -4 -8 -17 -17 -27
-10 -10 -29 -36 -43 -56 -14 -20 -32 -45 -40 -54 -8 -10 -19 -25 -25 -34 -38
-59 -86 -125 -104 -141 -20 -18 -22 -18 -41 -1 -11 10 -39 43 -62 74 -23 31
-47 61 -53 66 -6 6 -33 39 -61 75 -27 36 -57 74 -66 85 -10 11 -39 48 -66 81
-27 34 -54 68 -61 75 -6 8 -27 34 -46 59 -19 25 -46 59 -60 75 -13 17 -40 50
-60 75 -51 65 -80 100 -120 146 -19 23 -35 44 -35 48 0 10 -68 76 -78 76 -5 0
-80 -70 -165 -155 -86 -85 -158 -155 -160 -155 -7 0 -877 -875 -893 -899 -19
-27 -15 -111 6 -121 8 -4 25 -12 37 -18 28 -15 53 -15 53 -2 0 6 7 10 15 10 8
0 15 5 15 11 0 5 4 8 8 5 5 -3 172 159 373 360 200 201 440 438 532 527 l168
161 27 -30 c15 -16 51 -58 80 -94 28 -36 58 -72 65 -80 8 -8 36 -44 63 -80 51
-67 75 -97 132 -161 17 -20 32 -40 32 -44 0 -4 11 -19 24 -33 37 -40 98 -116
121 -148 18 -25 35 -46 110 -135 11 -13 46 -58 78 -99 63 -80 66 -84 82 -72
15 10 115 140 115 149 0 5 13 22 28 39 15 18 34 42 42 54 8 12 50 69 93 126
42 58 77 106 77 109 0 4 81 115 200 275 96 129 110 149 110 154 0 3 7 14 15
24 9 9 27 31 40 47 l25 30 100 -105 c55 -58 113 -121 127 -140 15 -19 55 -64
88 -100 72 -77 212 -228 309 -333 38 -41 72 -81 77 -88 4 -8 52 -58 106 -112
l98 -97 24 27 c54 65 61 73 61 79 0 3 48 78 108 167 111 169 123 187 143 225
7 12 16 22 21 22 4 0 8 5 8 11 0 6 14 28 30 49 17 21 30 41 30 45 0 4 14 24
30 45 17 21 30 40 30 43 0 9 159 243 173 255 11 10 22 3 52 -31 21 -23 77 -83
124 -133 99 -104 267 -284 391 -418 47 -51 107 -116 133 -144 26 -28 59 -55
72 -58 14 -3 25 -10 25 -15 0 -11 54 -12 64 -1 4 4 13 7 19 7 7 0 12 5 12 12
0 6 3 15 8 19 11 11 9 94 -3 94 -5 0 -10 5 -10 12 0 6 -26 39 -57 72 -31 34
-101 108 -154 166 -54 58 -147 157 -206 221 -59 63 -151 162 -203 219 -144
156 -273 290 -279 290 -3 0 -18 -16 -33 -34z"/>
<path d="M18820 18825 c-20 -24 -24 -110 -10 -211 7 -49 18 -156 26 -239 7
-82 19 -197 25 -253 16 -153 38 -142 -300 -142 -234 0 -280 -2 -299 -16 -12
-8 -22 -22 -22 -30 0 -8 -4 -14 -10 -14 -12 0 -14 -53 -2 -64 4 -4 7 -12 7
-17 0 -5 3 -8 6 -6 3 1 14 -5 24 -13 15 -13 73 -15 354 -18 185 -2 361 1 391
5 l55 8 -2 35 c-9 143 -26 318 -33 331 -4 8 -11 69 -15 135 -4 65 -13 162 -21
214 -8 52 -14 118 -14 145 0 28 -9 75 -19 105 l-19 55 -55 3 c-40 2 -57 -1
-67 -13z"/>
<path d="M10913 18398 c-4 -7 -8 -15 -9 -18 0 -3 -4 -13 -8 -22 -4 -9 -5 -50
-2 -90 5 -62 15 -219 41 -653 3 -44 8 -91 11 -104 l5 -24 370 7 c353 7 372 8
410 29 41 22 41 22 36 70 -8 84 4 82 -333 78 -284 -2 -297 -2 -315 17 -19 21
-17 -3 -47 547 -7 116 -10 133 -30 153 -17 17 -34 22 -71 22 -29 0 -53 -5 -58
-12z"/>
<path d="M16178 14573 c-32 -5 -34 -16 -48 -268 -5 -99 -12 -202 -15 -230 -2
-27 -12 -153 -20 -280 -8 -126 -22 -333 -30 -460 -26 -366 -28 -426 -18 -436
10 -10 143 -34 243 -44 36 -3 110 -12 165 -20 55 -7 161 -21 235 -30 185 -22
354 -43 485 -60 245 -32 293 -38 367 -42 l76 -5 12 38 c6 22 15 80 20 129 6
50 12 101 15 115 3 14 12 81 21 150 16 131 33 265 59 465 8 66 22 172 30 235
25 197 44 342 54 415 6 39 10 98 11 131 l0 62 -47 5 c-27 3 -131 13 -233 21
-102 8 -205 18 -230 21 -25 3 -106 10 -180 15 -74 5 -184 14 -245 19 -60 5
-200 17 -310 26 -110 8 -236 20 -280 25 -81 10 -89 10 -137 3z m296 -253 c34
-5 126 -14 206 -20 222 -15 500 -37 550 -44 25 -4 112 -11 194 -16 81 -6 151
-12 155 -14 7 -5 -4 -118 -34 -346 -9 -69 -23 -177 -31 -240 -21 -165 -41
-317 -59 -460 -9 -69 -19 -145 -22 -170 -3 -25 -8 -48 -11 -52 -4 -3 -38 -2
-77 2 -110 14 -493 62 -665 84 -63 8 -175 21 -249 30 -73 8 -136 18 -139 21
-7 6 14 351 57 980 5 77 10 166 10 198 1 55 2 57 28 57 14 0 54 -4 87 -10z"/>
<path d="M16444 14246 c-29 -29 -34 -41 -34 -81 0 -40 5 -52 34 -81 29 -29 41
-34 81 -34 40 0 52 5 81 34 29 29 34 41 34 81 0 40 -5 52 -34 81 -29 29 -41
34 -81 34 -40 0 -52 -5 -81 -34z"/>
<path d="M17335 14190 c-40 -16 -68 -57 -69 -103 -1 -54 24 -94 71 -114 48
-20 93 -10 129 28 55 57 32 163 -40 189 -34 12 -63 12 -91 0z"/>
<path d="M16398 13308 c-49 -44 -60 -92 -34 -143 33 -62 110 -83 172 -45 62
39 68 127 13 181 -39 38 -112 41 -151 7z"/>
<path d="M17220 13227 c-14 -7 -33 -29 -44 -50 -23 -49 -15 -100 24 -139 24
-23 37 -28 77 -28 52 1 76 14 105 57 62 95 -56 213 -162 160z"/>
<path d="M13605 14249 c-164 -21 -311 -40 -493 -65 -64 -8 -164 -21 -222 -29
-58 -8 -161 -21 -230 -30 -69 -9 -174 -23 -235 -31 -60 -8 -150 -19 -200 -24
-49 -6 -98 -15 -107 -20 -10 -6 -27 -10 -37 -10 -19 0 -20 -5 -14 -67 3 -38 9
-72 13 -78 4 -5 11 -39 15 -75 4 -35 11 -71 16 -80 4 -8 13 -44 18 -80 6 -36
17 -101 26 -145 9 -44 22 -111 29 -150 7 -38 16 -81 19 -95 3 -14 22 -110 42
-215 39 -207 59 -305 81 -405 8 -36 14 -72 14 -81 0 -9 7 -40 17 -68 l16 -51
51 1 c28 0 74 4 101 10 61 11 254 42 520 84 55 8 141 21 190 29 97 16 231 37
360 56 44 6 114 18 156 26 42 8 87 14 101 14 14 0 49 8 78 17 l52 17 -5 65
c-5 73 -35 328 -42 351 -2 8 -9 60 -14 115 -6 55 -15 129 -21 165 -5 36 -14
106 -20 155 -50 405 -89 695 -96 707 -3 4 -11 7 -17 7 -7 -1 -79 -10 -162 -20z
m-10 -306 c3 -38 12 -113 20 -168 8 -55 19 -140 25 -190 6 -49 18 -142 26
-205 8 -63 19 -155 24 -205 5 -49 14 -115 19 -145 6 -30 12 -74 14 -96 5 -48
14 -44 -153 -70 -93 -14 -196 -30 -375 -59 -206 -33 -290 -46 -377 -60 -51 -7
-120 -19 -153 -24 -96 -17 -112 -15 -119 15 -9 34 -2 40 26 20 12 -9 40 -16
61 -16 31 0 46 7 73 34 39 39 45 86 19 136 -20 38 -43 50 -101 50 -40 0 -51
-5 -79 -34 l-32 -34 -11 67 c-6 36 -19 102 -27 146 -9 44 -22 112 -30 150 -12
65 -27 139 -61 310 -8 39 -21 106 -29 150 -8 44 -17 90 -20 101 -9 28 4 32
150 50 66 9 167 22 225 29 58 8 159 21 225 29 66 8 152 19 190 25 39 5 126 17
195 26 69 9 143 21 165 25 22 4 54 8 72 9 l31 1 7 -67z"/>
<path d="M13413 13934 c-40 -20 -67 -74 -59 -118 11 -56 76 -102 131 -92 38 7
83 48 92 83 10 42 -14 99 -51 122 -40 25 -70 26 -113 5z"/>
<path d="M12459 13795 c-32 -17 -59 -80 -52 -118 3 -15 18 -41 33 -57 24 -25
35 -30 77 -30 73 1 113 41 113 115 0 53 -53 105 -106 105 -22 -1 -51 -7 -65
-15z"/>
<path d="M13440 13073 c-55 -50 -50 -141 9 -176 47 -28 107 -22 142 12 24 25
29 38 29 78 -1 72 -42 113 -114 113 -25 0 -45 -8 -66 -27z"/>
</g>
</svg>
